<?xml version="1.0" encoding="utf-8"?>
<!-- Generator: Adobe Illustrator 24.0.3, SVG Export Plug-In . SVG Version: 6.00 Build 0)  -->
<svg version="1.1" id="Layer_1" xmlns="http://www.w3.org/2000/svg" xmlns:xlink="http://www.w3.org/1999/xlink" x="0px" y="0px"
	 viewBox="0 0 258.1 176.1" style="enable-background:new 0 0 258.1 176.1;" xml:space="preserve">
<style type="text/css">
	.st0{clip-path:url(#SVGID_2_);}
	.st1{fill:url(#SVGID_3_);}
</style>
<title>INTO-LOGO-RGB</title>
<g>
	<defs>
		<path id="SVGID_1_" d="M114.7,153.7v15.5c0,2.8-2.3,5-5,5c-0.6,0-1.3-0.1-1.9-0.4l-102.1-44c-2.2-1-3.7-3.2-3.7-5.6V58.9
			c0-3.4,2.7-6.1,6-6.1c0.8,0,1.7,0.2,2.4,0.5l53.7,23.2C94.9,89.8,114.8,120.2,114.7,153.7z M247.7,53.3L194,76.4
			c-30.7,13.4-50.6,43.7-50.5,77.2v15.5c0,2.8,2.3,5,5,5c0.6,0,1.3-0.1,1.9-0.4l102.1-44c2.2-1,3.7-3.2,3.7-5.6V58.9
			c0-3.4-2.7-6.1-6-6.1C249.3,52.8,248.5,53,247.7,53.3L247.7,53.3z M158.5,72.9C142,89,115.7,88.6,99.6,72.1
			c-15.7-16.2-15.7-42,0-58.1l0,0c16.5-16.1,42.9-15.7,58.9,0.8C174.3,31,174.3,56.8,158.5,72.9z M112.4,48.8c-2,0-3.6,1.7-3.6,3.7
			c0,0.3,0,0.5,0.1,0.8c2.3,11.2,13.3,18.3,24.5,16c8-1.7,14.3-8,16-16c0.4-2-0.8-3.9-2.7-4.4c-0.3-0.1-0.5-0.1-0.8-0.1H112.4z"/>
	</defs>
	<clipPath id="SVGID_2_">
		<use xlink:href="#SVGID_1_"  style="overflow:visible;"/>
	</clipPath>
	<g class="st0">
		
			<linearGradient id="SVGID_3_" gradientUnits="userSpaceOnUse" x1="129.07" y1="1.000977e-02" x2="129.07" y2="176.14" gradientTransform="matrix(1 0 0 -1 0 176.14)">
			<stop  offset="0" style="stop-color:#0092FD"/>
			<stop  offset="1" style="stop-color:#00CBFD"/>
		</linearGradient>
		<rect class="st1" width="258.1" height="176.1"/>
	</g>
</g>
</svg>
