<?xml version="1.0" encoding="utf-8"?>
<!-- Generator: Adobe Illustrator 24.0.3, SVG Export Plug-In . SVG Version: 6.00 Build 0)  -->
<svg version="1.1" id="Layer_1" xmlns="http://www.w3.org/2000/svg" xmlns:xlink="http://www.w3.org/1999/xlink" x="0px" y="0px"
	 viewBox="0 0 366.5 102.7" style="enable-background:new 0 0 366.5 102.7;" xml:space="preserve">
<style type="text/css">
	.st0{clip-path:url(#SVGID_2_);}
	.st1{fill:url(#SVGID_3_);}
</style>
<title>INTO-LOGO-RGB</title>
<g>
	<path d="M333.8,27.2c-16,0-28.9,12.9-28.9,28.9c0,16,12.9,28.9,28.9,28.9c16,0,28.9-12.9,28.9-28.9S349.8,27.2,333.8,27.2
		L333.8,27.2z M333.8,71.9c-8.7,0-15.8-7.1-15.8-15.8c0-8.7,7.1-15.8,15.8-15.8c8.7,0,15.8,7.1,15.8,15.8c0,0,0,0,0,0
		C349.7,64.9,342.6,71.9,333.8,71.9C333.8,71.9,333.8,71.9,333.8,71.9L333.8,71.9z"/>
	<path d="M298.6,72.4c-0.6,0.2-1.3,0.4-2.1,0.6c-2.1,0.5-4.2,0.8-6.3,0.8c-3.5,0-5.9-1-7.3-2.9c-1.4-1.9-2.2-5.2-2.2-9.7V41.1h12.6
		c0.9,0,1.7-0.7,1.7-1.7v-7.6c0-0.9-0.7-1.7-1.7-1.7h-12.6V19.5c0-0.9-0.7-1.7-1.7-1.7c-0.1,0-0.2,0-0.3,0l-9.8,1.6
		c-0.8,0.1-1.4,0.8-1.4,1.6v40.1c0,3.4,0.3,6.7,1,10c0.6,2.7,1.7,5.2,3.3,7.5c1.7,2.1,3.9,3.7,6.4,4.7c3.2,1.2,6.7,1.7,10.1,1.6
		c3.7-0.3,7.4-0.9,11-1.8c0.7-0.2,1.3-0.8,1.3-1.6V74c0-0.9-0.8-1.7-1.7-1.7C299,72.3,298.8,72.4,298.6,72.4z"/>
	<path d="M248.8,34.4c-2-2.4-4.5-4.2-7.4-5.3c-3.7-1.4-7.6-2-11.6-1.9c-4.5,0-9,0.3-13.4,1c-3.4,0.5-6.3,1.1-8.6,1.7
		c-0.7,0.2-1.2,0.9-1.2,1.6v51.8c0,0.9,0.8,1.7,1.7,1.7c0,0,0,0,0,0h9.8c0.9,0,1.7-0.7,1.7-1.7v-44c0.9-0.1,2.2-0.3,4-0.5
		c1.7-0.2,3.5-0.3,5.2-0.3c1.9-0.1,3.9,0.3,5.7,0.9c1.5,0.6,2.8,1.6,3.7,2.9c1,1.6,1.7,3.3,1.9,5.2c0.4,2.6,0.6,5.1,0.6,7.7v28.1
		c0,0.9,0.7,1.7,1.7,1.7h9.8c0.9,0,1.7-0.7,1.7-1.7V53.2c0-3.5-0.4-7.1-1.1-10.5C252,39.6,250.7,36.8,248.8,34.4z"/>
	<path d="M188.8,17.8l-9.7,1.6c-0.8,0.1-1.4,0.8-1.4,1.6v62.3c0,0.9,0.7,1.7,1.6,1.7h9.8c0.9,0,1.7-0.7,1.7-1.7V19.5
		c0-0.9-0.8-1.7-1.7-1.7C188.9,17.8,188.8,17.8,188.8,17.8z"/>
	<path d="M358.8,26.3h-1.2v-0.9h3.5v0.9h-1.2V30h-1L358.8,26.3z"/>
	<path d="M365.5,28.2c0-0.5,0-1.2,0-1.9l0,0c-0.1,0.6-0.3,1.2-0.5,1.8l-0.6,1.8h-0.8l-0.5-1.8c-0.2-0.5-0.3-1.2-0.4-1.8l0,0
		c0,0.6,0,1.3-0.1,1.9l-0.1,1.8h-1l0.3-4.6h1.4l0.5,1.5c0.1,0.5,0.3,1.1,0.4,1.6l0,0c0.1-0.5,0.3-1.1,0.4-1.6l0.5-1.5h1.3l0.2,4.6
		h-1L365.5,28.2z"/>
	<g>
		<defs>
			<path id="SVGID_1_" d="M67.2,90.5v9.2c0,1.7-1.4,3-3,3c-0.4,0-0.7-0.1-1.1-0.2L2.2,76.2C0.9,75.6,0,74.3,0,72.9V34
				c0-2,1.6-3.6,3.6-3.6c0.5,0,1,0.1,1.4,0.3l32,13.8C55.3,52.4,67.2,70.5,67.2,90.5z M146.5,30.7l-32,13.8c-18.3,8-30.1,26-30.1,46
				v9.2c0,1.7,1.4,3,3,3c0.4,0,0.7-0.1,1.1-0.2l60.8-26.2c1.3-0.6,2.2-1.9,2.2-3.4V34c0-2-1.6-3.6-3.6-3.6
				C147.4,30.4,146.9,30.5,146.5,30.7L146.5,30.7z M93.3,42.4c-9.7,9.7-25.4,9.7-35.1,0s-9.7-25.4,0-35.1l0,0l0,0
				c9.7-9.7,25.4-9.7,35.1,0S103,32.7,93.3,42.4z M65.8,28c-1.2,0-2.2,1-2.2,2.2c0,0.2,0,0.3,0.1,0.5c1.4,6.7,7.9,10.9,14.6,9.5
				c4.8-1,8.5-4.7,9.5-9.5c0.3-1.2-0.5-2.3-1.6-2.6C86,28,85.9,28,85.7,28H65.8z"/>
		</defs>
		<clipPath id="SVGID_2_">
			<use xlink:href="#SVGID_1_"  style="overflow:visible;"/>
		</clipPath>
		<g class="st0">
			
				<linearGradient id="SVGID_3_" gradientUnits="userSpaceOnUse" x1="75.74" y1="-1.0843" x2="75.74" y2="103.9057" gradientTransform="matrix(1 0 0 -1 0 102.8114)">
				<stop  offset="0" style="stop-color:#0092FD"/>
				<stop  offset="1" style="stop-color:#00CBFD"/>
			</linearGradient>
			<rect x="-1.2" y="-1.1" class="st1" width="153.9" height="105"/>
		</g>
	</g>
</g>
</svg>
