<?xml version="1.0" encoding="utf-8"?>
<!-- Generator: Adobe Illustrator 24.0.3, SVG Export Plug-In . SVG Version: 6.00 Build 0)  -->
<svg version="1.1" id="Layer_1" xmlns="http://www.w3.org/2000/svg" xmlns:xlink="http://www.w3.org/1999/xlink" x="0px" y="0px"
	 viewBox="0 0 349.2 230.9" style="enable-background:new 0 0 349.2 230.9;" xml:space="preserve">
<style type="text/css">
	.st0{fill:#FFFFFF;}
</style>
<title>INTO-LOGO-RGB</title>
<g>
	<path class="st0" d="M301.7,147c-23.2,0-42,18.8-41.9,42c0,23.2,18.8,42,42,42c23.1,0,41.9-18.8,41.9-41.9
		C343.6,165.9,324.9,147,301.7,147C301.7,147,301.7,147,301.7,147z M301.7,211.9c-12.7,0-23-10.3-23-23s10.3-23,23-23s23,10.3,23,23
		l0,0C324.7,201.6,314.4,211.9,301.7,211.9z"/>
	<path class="st0" d="M250.6,212.6c-0.9,0.3-1.9,0.6-3,0.9c-3,0.8-6.1,1.1-9.2,1.1c-5,0-8.6-1.4-10.7-4.2c-2.1-2.8-3.1-7.5-3.1-14.1
		v-29.1h18.2c1.3,0,2.4-1.1,2.4-2.4c0,0,0,0,0,0v-11c0-1.3-1.1-2.4-2.4-2.4h-18.2v-15.5c0-1.3-1.1-2.4-2.4-2.4c-0.1,0-0.3,0-0.4,0
		l-14.2,2.3c-1.2,0.2-2,1.2-2,2.4v58.3c-0.1,4.9,0.4,9.7,1.4,14.5c0.8,3.9,2.5,7.6,4.9,10.8c2.4,3.1,5.7,5.4,9.3,6.8
		c4.7,1.7,9.7,2.5,14.7,2.3c3.9,0,12.2-1.7,16-2.6c1.1-0.3,1.8-1.2,1.8-2.3v-11c0-1.3-1.1-2.4-2.4-2.4
		C251,212.5,250.8,212.5,250.6,212.6z"/>
	<path class="st0" d="M178.1,157.5c-2.9-3.4-6.6-6.1-10.7-7.7c-4.5-1.8-10.1-2.8-16.8-2.8c-6.5,0-13,0.4-19.5,1.4
		c-4.9,0.8-9.1,1.6-12.5,2.5c-1.1,0.3-1.8,1.2-1.8,2.3v75.3c0,1.3,1.1,2.4,2.4,2.4c0,0,0,0,0,0h14.2c1.3,0,2.4-1.1,2.4-2.4v-63.9
		c1.2-0.2,3.2-0.5,5.8-0.8c2.5-0.3,5-0.5,7.5-0.5c2.8-0.1,5.6,0.4,8.2,1.3c2.2,0.8,4,2.3,5.3,4.2c1.4,2.3,2.4,4.8,2.8,7.5
		c0.6,3.7,0.9,7.5,0.9,11.2v40.9c0,1.3,1.1,2.4,2.4,2.4H183c1.3,0,2.4-1.1,2.4-2.4v-43.9c0-5.1-0.5-10.3-1.6-15.3
		C182.8,165,180.9,160.9,178.1,157.5z"/>
	<path class="st0" d="M91,133.4l-14.1,2.4c-1.2,0.2-2,1.2-2,2.4v90.4c0,1.3,1.1,2.4,2.4,2.4c0,0,0,0,0,0h14.1c1.3,0,2.4-1.1,2.4-2.4
		v-92.8c0-1.3-1.1-2.4-2.4-2.4C91.3,133.3,91.2,133.3,91,133.4z"/>
	<path class="st0" d="M337.9,145.6h-1.8v-1.3h5.1v1.3h-1.8v5.4h-1.5V145.6z"/>
	<path class="st0" d="M347.6,148.5c0-0.8-0.1-1.8-0.1-2.7l0,0c-0.2,0.8-0.5,1.8-0.7,2.6l-0.8,2.6h-1.2l-0.7-2.6
		c-0.2-0.8-0.4-1.7-0.6-2.6l0,0c0,0.9-0.1,1.9-0.1,2.8l-0.1,2.5h-1.4l0.4-6.7h2l0.7,2.2c0.2,0.8,0.4,1.6,0.6,2.4l0,0
		c0.2-0.8,0.4-1.7,0.6-2.4l0.7-2.2h2l0.4,6.7h-1.5L347.6,148.5z"/>
	<path class="st0" d="M74.8,100.8v10.3c0,1.8-1.4,3.3-3.2,3.3c-0.5,0-0.9-0.1-1.3-0.3L2.4,84.9C1,84.2,0,82.8,0,81.2V37.9
		c0-2.2,1.7-4,3.9-4.1c0.6,0,1.2,0.1,1.7,0.3l35.7,15.3C61.7,58.4,74.9,78.6,74.8,100.8z M163.1,34.2l-35.7,15.3
		c-20.4,8.9-33.6,29-33.5,51.3V111c0,1.8,1.5,3.3,3.3,3.3c0.4,0,0.9-0.1,1.3-0.3l67.8-29.2c1.5-0.6,2.4-2.1,2.5-3.7V37.9
		c0-2.2-1.7-4-3.9-4.1C164.2,33.8,163.6,33.9,163.1,34.2L163.1,34.2z M103.9,47.2C93.1,58,75.6,58,64.8,47.2S54,18.9,64.8,8.1l0,0
		c10.8-10.8,28.3-10.8,39.1,0S114.7,36.4,103.9,47.2z M73.3,31.2c-1.3,0-2.4,1.1-2.4,2.4c0,0.2,0,0.4,0.1,0.6
		c1.5,7.4,8.8,12.2,16.2,10.6c5.3-1.1,9.5-5.3,10.6-10.6c0.3-1.3-0.5-2.6-1.7-2.9c-0.2,0-0.4-0.1-0.6-0.1H73.3z"/>
</g>
</svg>
