<?xml version="1.0" encoding="utf-8"?>
<!-- Generator: Adobe Illustrator 24.0.3, SVG Export Plug-In . SVG Version: 6.00 Build 0)  -->
<svg version="1.1" id="Layer_1" xmlns="http://www.w3.org/2000/svg" xmlns:xlink="http://www.w3.org/1999/xlink" x="0px" y="0px"
	 viewBox="0 0 254.2 171.9" style="enable-background:new 0 0 254.2 171.9;" xml:space="preserve">
<style type="text/css">
	.st0{fill:#FFFFFF;}
</style>
<title>INTO-LOGO-RGB</title>
<path class="st0" d="M112.7,151.5v15.5c0,2.8-2.3,5-5,5c-0.6,0-1.3-0.1-1.9-0.4l-102.1-44c-2.2-1-3.7-3.2-3.7-5.6V56.7
	c0-3.4,2.7-6.1,6-6.1c0.8,0,1.7,0.2,2.4,0.5l53.7,23.2C92.9,87.6,112.8,118,112.7,151.5z M245.7,51.1L192,74.3
	c-30.7,13.4-50.6,43.7-50.5,77.2v15.5c0,2.8,2.3,5,5,5c0.6,0,1.3-0.1,1.9-0.4l102.1-44c2.2-1,3.7-3.2,3.7-5.6V56.7
	c0-3.4-2.7-6.1-6-6.1C247.3,50.6,246.5,50.8,245.7,51.1L245.7,51.1z M156.5,70.7c-16.5,16.1-42.9,15.7-58.9-0.8
	c-15.7-16.2-15.7-42,0-58.1l0,0c16.5-16.1,42.9-15.7,58.9,0.8C172.3,28.8,172.3,54.6,156.5,70.7z M110.4,46.6c-2,0-3.6,1.7-3.6,3.7
	c0,0.3,0,0.5,0.1,0.8c2.3,11.2,13.3,18.3,24.5,16c8-1.7,14.3-8,16-16c0.4-2-0.8-3.9-2.7-4.4c-0.3-0.1-0.5-0.1-0.8-0.1H110.4z"/>
</svg>
